<svg version="1.0" xmlns="http://www.w3.org/2000/svg" width="50.000000pt" height="50.000000pt" viewBox="0 0 50.000000 50.000000" preserveAspectRatio="xMidYMid meet"><g transform="translate(0.000000,50.000000) scale(0.100000,-0.100000)" fill="#000000" stroke="none"><path d="M195 455 c-50 -49 -15 -135 55 -135 41 0 80 39 80 80 0 41 -39 80
-80 80 -19 0 -40 -9 -55 -25z m95 -15 c11 -11 20 -29 20 -40 0 -26 -34 -60
-60 -60 -26 0 -60 34 -60 60 0 11 9 29 20 40 11 11 29 20 40 20 11 0 29 -9 40
-20z"/><path d="M133 285 c-36 -25 -96 -132 -89 -159 7 -28 73 -89 89 -83 7 2 18 -3
25 -12 11 -13 12 -1 8 78 -3 52 -8 97 -11 100 -7 6 -54 -49 -55 -63 0 -6 12
-23 27 -38 21 -22 24 -31 15 -40 -10 -10 -20 -4 -50 25 l-37 37 24 46 c32 59
74 104 98 104 23 0 58 -88 49 -124 -4 -17 -1 -26 11 -30 22 -9 34 5 37 45 5
57 28 109 49 109 24 0 66 -45 98 -104 l24 -46 -37 -37 c-30 -29 -40 -35 -50
-25 -9 9 -6 18 15 40 15 15 27 32 27 38 -1 14 -48 69 -55 63 -3 -3 -8 -48 -11
-100 -4 -79 -3 -91 8 -78 7 9 18 14 25 12 16 -6 82 55 89 83 7 27 -53 134 -89
159 -30 21 -204 21 -234 0z m147 -9 c0 -14 -24 -66 -30 -66 -6 0 -30 52 -30
66 0 2 14 4 30 4 17 0 30 -2 30 -4z m-130 -150 c0 -5 -7 -3 -15 4 -8 7 -12 17
-9 22 7 10 24 -9 24 -26z m219 8 c-15 -18 -22 -13 -13 10 3 9 10 13 16 10 5
-3 4 -12 -3 -20z"/></g></svg>